# xmcd CD database file
#
# Track frame offsets:
#	156
#	25693
#	49634
#	71828
#	92039
#	114681
#	139842
#	164381
#	186072
#	199717
#	202954
#
# Disc length: 3113 seconds
#
# Revision: 0
# Processed by: cddbd v1.5PL3 Copyright (c) Steve Scherf et al.
# Submitted via: CDex 1.50beta8
#
DISCID=970c270b
DTITLE=加瀬 竜哉 - SISTER LEESA
DYEAR=1900
DGENRE=Hard Rock
TTITLE0=THE SINNER OF LOVE
TTITLE1=BLOODY SKY,BLOODY CRY
TTITLE2=AL・LA'S EYE
TTITLE3=MAGIC
TTITLE4=ROCK THE PLANET
TTITLE5=DEEP INSIDE OH! MAMA
TTITLE6=SARAH -IN THE LAST X'MAS
TTITLE7=CHANCE TO SURVIVE
TTITLE8=CALL YOUR NAME
TTITLE9=SANCTUARY
TTITLE10=SISTER LEESA
EXTD=
EXTT0=
EXTT1=
EXTT2=
EXTT3=
EXTT4=
EXTT5=
EXTT6=
EXTT7=
EXTT8=
EXTT9=
EXTT10=
PLAYORDER=
